<?xml version="1.0" standalone="no"?>
<!DOCTYPE svg PUBLIC "-//W3C//DTD SVG 20010904//EN"
 "http://www.w3.org/TR/2001/REC-SVG-20010904/DTD/svg10.dtd">
<svg version="1.0" xmlns="http://www.w3.org/2000/svg"
 width="32" height="32" viewBox="0 0 128.000000 128.000000"
 preserveAspectRatio="xMidYMid meet">

<g transform="translate(0.000000,128.000000) scale(0.100000,-0.100000)"
fill="#000000" stroke="none">
<path d="M600 1200 c-11 -11 -20 -29 -20 -40 0 -11 9 -29 20 -40 31 -31 24
-40 -30 -40 -49 0 -90 -23 -90 -50 0 -5 -8 -10 -18 -10 -28 0 -42 -20 -42 -60
0 -39 14 -60 41 -60 9 0 19 -8 21 -18 6 -23 -21 -42 -58 -42 -30 0 -84 -50
-84 -78 0 -10 -9 -27 -20 -37 -11 -10 -20 -24 -20 -32 0 -16 32 -17 48 -1 9 9
15 9 24 0 16 -16 48 -15 48 1 0 8 -9 22 -19 31 -24 22 -15 55 17 67 22 8 22 7
22 -89 0 -81 4 -101 20 -122 13 -17 20 -41 20 -72 l0 -48 160 0 160 0 0 43 c0
25 8 54 20 72 16 25 20 47 20 127 0 96 0 97 22 89 32 -12 41 -45 17 -67 -10
-9 -19 -23 -19 -31 0 -16 32 -17 48 -1 9 9 15 9 24 0 16 -16 48 -15 48 1 0 8
-9 22 -20 32 -11 10 -20 27 -20 37 0 30 -54 78 -87 78 -54 0 -77 56 -25 62 24
3 27 7 30 46 4 47 -10 72 -39 72 -11 0 -19 5 -19 10 0 27 -41 50 -90 50 -54 0
-61 9 -30 40 11 11 20 29 20 40 0 11 -9 29 -20 40 -11 11 -29 20 -40 20 -11 0
-29 -9 -40 -20z m56 -31 c10 -17 -13 -36 -27 -22 -12 12 -4 33 11 33 5 0 12
-5 16 -11z m99 -209 c0 -63 -3 -75 -17 -78 -14 -3 -18 3 -18 27 l0 31 -80 0
-80 0 0 -31 c0 -24 -4 -30 -17 -27 -15 3 -19 16 -21 67 -2 35 -1 70 2 78 4 11
29 13 118 11 l113 -3 0 -75z m-275 0 c0 -11 -4 -20 -10 -20 -5 0 -10 9 -10 20
0 11 5 20 10 20 6 0 10 -9 10 -20z m340 0 c0 -11 -4 -20 -10 -20 -5 0 -10 9
-10 20 0 11 5 20 10 20 6 0 10 -9 10 -20z m-140 -70 c0 -5 -18 -10 -40 -10
-22 0 -40 5 -40 10 0 6 18 10 40 10 22 0 40 -4 40 -10z m95 -66 c24 -15 25
-22 25 -106 0 -65 -4 -95 -16 -113 -16 -24 -19 -25 -141 -25 -159 0 -162 2
-163 136 0 120 3 123 158 123 88 1 118 -3 137 -15z m-15 -304 c0 -19 -7 -20
-120 -20 -113 0 -120 1 -120 20 0 19 7 20 120 20 113 0 120 -1 120 -20z"/>
<path d="M560 980 c0 -13 7 -20 20 -20 13 0 20 7 20 20 0 13 -7 20 -20 20 -13
0 -20 -7 -20 -20z"/>
<path d="M680 980 c0 -13 7 -20 20 -20 13 0 20 7 20 20 0 13 -7 20 -20 20 -13
0 -20 -7 -20 -20z"/>
<path d="M552 768 c-7 -7 -12 -38 -12 -70 0 -51 2 -58 20 -58 13 0 20 7 20 20
0 13 7 20 20 20 13 0 20 -7 20 -20 0 -13 7 -20 20 -20 18 0 20 7 20 54 0 78
-5 86 -54 86 -23 0 -47 -5 -54 -12z m68 -38 c0 -5 -9 -10 -20 -10 -11 0 -20 5
-20 10 0 6 9 10 20 10 11 0 20 -4 20 -10z"/>
<path d="M700 710 c0 -63 2 -70 20 -70 18 0 20 7 20 70 0 63 -2 70 -20 70 -18
0 -20 -7 -20 -70z"/>
<path d="M180 1040 c-19 -19 -20 -33 -20 -330 l0 -310 -60 -120 c-61 -122 -75
-181 -48 -208 17 -17 1159 -17 1176 0 27 27 13 86 -48 208 l-60 120 0 310 c0
379 12 350 -150 350 -103 0 -110 -1 -110 -20 0 -18 8 -20 108 -22 l107 -3 3
-297 2 -298 -440 0 -440 0 2 298 3 297 108 3 c99 2 107 4 107 22 0 19 -7 20
-110 20 -97 0 -112 -2 -130 -20z m953 -755 c26 -52 47 -97 47 -100 0 -3 -83
-5 -183 -5 l-184 0 -18 40 -18 40 -137 0 -137 0 -18 -40 -18 -40 -184 0 c-100
0 -183 2 -183 5 0 3 21 48 47 100 l48 95 445 0 445 0 48 -95z m-383 -69 c0 -2
3 -11 6 -20 5 -14 -9 -16 -115 -16 -67 0 -121 2 -121 4 0 32 14 36 121 36 60
0 109 -2 109 -4z m450 -96 c0 -20 -7 -20 -560 -20 -553 0 -560 0 -560 20 0 20
7 20 560 20 553 0 560 0 560 -20z"/>
<path d="M220 320 c0 -13 7 -20 20 -20 13 0 20 7 20 20 0 13 -7 20 -20 20 -13
0 -20 -7 -20 -20z"/>
<path d="M300 320 c0 -13 7 -20 20 -20 13 0 20 7 20 20 0 13 -7 20 -20 20 -13
0 -20 -7 -20 -20z"/>
<path d="M380 320 c0 -13 7 -20 20 -20 13 0 20 7 20 20 0 13 -7 20 -20 20 -13
0 -20 -7 -20 -20z"/>
<path d="M460 320 c0 -13 7 -20 20 -20 13 0 20 7 20 20 0 13 -7 20 -20 20 -13
0 -20 -7 -20 -20z"/>
<path d="M540 320 c0 -13 7 -20 20 -20 13 0 20 7 20 20 0 13 -7 20 -20 20 -13
0 -20 -7 -20 -20z"/>
<path d="M620 320 c0 -13 7 -20 20 -20 13 0 20 7 20 20 0 13 -7 20 -20 20 -13
0 -20 -7 -20 -20z"/>
<path d="M700 320 c0 -13 7 -20 20 -20 13 0 20 7 20 20 0 13 -7 20 -20 20 -13
0 -20 -7 -20 -20z"/>
<path d="M780 320 c0 -13 7 -20 20 -20 13 0 20 7 20 20 0 13 -7 20 -20 20 -13
0 -20 -7 -20 -20z"/>
<path d="M860 320 c0 -13 7 -20 20 -20 13 0 20 7 20 20 0 13 -7 20 -20 20 -13
0 -20 -7 -20 -20z"/>
<path d="M940 320 c0 -13 7 -20 20 -20 13 0 20 7 20 20 0 13 -7 20 -20 20 -13
0 -20 -7 -20 -20z"/>
<path d="M1020 320 c0 -13 7 -20 20 -20 13 0 20 7 20 20 0 13 -7 20 -20 20
-13 0 -20 -7 -20 -20z"/>
<path d="M200 240 c0 -13 7 -20 20 -20 13 0 20 7 20 20 0 13 -7 20 -20 20 -13
0 -20 -7 -20 -20z"/>
<path d="M280 240 c0 -13 7 -20 20 -20 13 0 20 7 20 20 0 13 -7 20 -20 20 -13
0 -20 -7 -20 -20z"/>
<path d="M360 240 c0 -17 7 -20 40 -20 33 0 40 3 40 20 0 17 -7 20 -40 20 -33
0 -40 -3 -40 -20z"/>
<path d="M840 240 c0 -17 7 -20 40 -20 33 0 40 3 40 20 0 17 -7 20 -40 20 -33
0 -40 -3 -40 -20z"/>
<path d="M960 240 c0 -13 7 -20 20 -20 13 0 20 7 20 20 0 13 -7 20 -20 20 -13
0 -20 -7 -20 -20z"/>
<path d="M1040 240 c0 -13 7 -20 20 -20 13 0 20 7 20 20 0 13 -7 20 -20 20
-13 0 -20 -7 -20 -20z"/>
</g>
</svg>
