<?xml version="1.0" standalone="no"?>
<!DOCTYPE svg PUBLIC "-//W3C//DTD SVG 20010904//EN"
 "http://www.w3.org/TR/2001/REC-SVG-20010904/DTD/svg10.dtd">
<svg version="1.0" xmlns="http://www.w3.org/2000/svg"
 width="16" height="16" viewBox="0 0 128.000000 128.000000"
 preserveAspectRatio="xMidYMid meet">

<g transform="translate(0.000000,128.000000) scale(0.100000,-0.100000)"
fill="#000000" stroke="none">
<path d="M297 1202 c-25 -26 -37 -47 -37 -66 0 -21 -19 -50 -70 -109 l-70 -80
0 -78 0 -77 -40 -32 -40 -32 0 -128 0 -128 79 -69 80 -68 0 -71 c1 -69 2 -73
54 -145 l53 -74 111 -3 110 -3 56 47 57 46 57 -46 56 -47 110 3 111 3 53 74
c52 72 53 76 54 145 l1 71 79 68 79 68 0 129 0 128 -40 32 -40 32 0 77 0 78
-70 80 c-52 60 -70 88 -70 110 0 20 -11 40 -38 66 l-38 37 -116 0 -116 0 -36
-42 -36 -43 -36 43 -36 42 -117 0 -117 0 -37 -38z m139 -153 c10 -17 -13 -36
-27 -22 -12 12 -4 33 11 33 5 0 12 -5 16 -11z m440 0 c10 -17 -13 -36 -27 -22
-12 12 -4 33 11 33 5 0 12 -5 16 -11z m-104 -121 c70 -32 124 -86 157 -157 54
-115 27 -264 -64 -356 -122 -121 -328 -121 -450 0 -78 78 -111 204 -82 306 57
194 259 289 439 207z m-376 -679 c10 -17 -13 -36 -27 -22 -12 12 -4 33 11 33
5 0 12 -5 16 -11z m520 0 c10 -17 -13 -36 -27 -22 -12 12 -4 33 11 33 5 0 12
-5 16 -11z"/>
<path d="M500 856 c0 -13 9 -35 20 -49 20 -25 20 -25 0 -30 -11 -3 -20 -12
-20 -21 0 -22 -23 -20 -38 4 -7 11 -23 20 -37 20 -18 0 -25 -5 -25 -20 0 -11
6 -20 13 -20 7 0 18 -9 25 -20 7 -11 23 -20 37 -20 18 0 25 -5 25 -20 0 -17
-7 -20 -50 -20 -43 0 -50 -3 -50 -20 0 -17 7 -20 50 -20 43 0 50 -3 50 -20 0
-15 -7 -20 -25 -20 -14 0 -30 -9 -37 -20 -7 -11 -18 -20 -25 -20 -7 0 -13 -9
-13 -20 0 -15 7 -20 25 -20 14 0 30 9 37 20 7 11 18 20 24 20 7 0 14 -9 17
-20 3 -11 13 -20 22 -20 14 0 14 -3 -4 -26 -28 -35 -28 -74 -1 -74 13 0 20 7
20 18 0 11 9 27 20 37 11 10 20 24 20 32 0 7 9 13 20 13 17 0 20 -7 20 -50 0
-43 3 -50 20 -50 17 0 20 7 20 50 0 43 3 50 20 50 11 0 20 -6 20 -13 0 -8 9
-22 20 -32 11 -10 20 -26 20 -37 0 -11 7 -18 20 -18 27 0 26 34 -1 68 -19 24
-19 27 -3 32 10 4 20 14 24 24 5 16 8 16 32 -3 34 -27 68 -28 68 -1 0 13 -7
20 -18 20 -11 0 -27 9 -37 20 -10 11 -24 20 -32 20 -7 0 -13 9 -13 20 0 17 7
20 50 20 43 0 50 3 50 20 0 17 -7 20 -50 20 -43 0 -50 3 -50 20 0 11 6 20 13
20 8 0 22 9 32 20 10 11 26 20 37 20 11 0 18 7 18 20 0 14 -7 20 -23 20 -13 0
-32 -9 -42 -20 -10 -11 -21 -20 -25 -20 -4 0 -10 9 -13 20 -3 11 -12 20 -21
20 -22 0 -20 13 4 35 11 10 20 29 20 42 0 16 -6 23 -20 23 -13 0 -20 -7 -20
-18 0 -11 -9 -27 -20 -37 -11 -10 -20 -24 -20 -32 0 -7 -9 -13 -20 -13 -17 0
-20 7 -20 50 0 43 -3 50 -20 50 -17 0 -20 -7 -20 -50 0 -43 -3 -50 -20 -50
-11 0 -20 6 -20 13 0 8 -9 22 -20 32 -11 10 -20 26 -20 37 0 11 -7 18 -20 18
-14 0 -20 -7 -20 -24z m160 -216 c0 -13 -7 -20 -20 -20 -13 0 -20 7 -20 20 0
13 7 20 20 20 13 0 20 -7 20 -20z"/>
</g>
</svg>
